<svg width="12" height="9" viewBox="0 0 12 9" fill="none" xmlns="http://www.w3.org/2000/svg">
<path d="M5.99896 0C4.31577 0 2.96797 0.739286 1.98681 1.6192C1.01189 2.49107 0.359865 3.53571 0.051558 4.2529C-0.017186 4.41161 -0.017186 4.58839 0.051558 4.7471C0.359865 5.46429 1.01189 6.50893 1.98681 7.3808C2.96797 8.26071 4.31577 9 5.99896 9C7.68215 9 9.02995 8.26071 10.0111 7.3808C10.986 6.50692 11.6381 5.46429 11.9484 4.7471C12.0172 4.58839 12.0172 4.41161 11.9484 4.2529C11.6381 3.53571 10.986 2.49107 10.0111 1.6192C9.02995 0.739286 7.68215 0 5.99896 0ZM2.99922 4.5C2.99922 3.73277 3.31526 2.99696 3.87782 2.45444C4.44038 1.91193 5.20338 1.60714 5.99896 1.60714C6.79454 1.60714 7.55753 1.91193 8.12009 2.45444C8.68265 2.99696 8.9987 3.73277 8.9987 4.5C8.9987 5.26723 8.68265 6.00304 8.12009 6.54556C7.55753 7.08807 6.79454 7.39286 5.99896 7.39286C5.20338 7.39286 4.44038 7.08807 3.87782 6.54556C3.31526 6.00304 2.99922 5.26723 2.99922 4.5ZM5.99896 3.21429C5.99896 3.92344 5.40109 4.5 4.66574 4.5C4.51784 4.5 4.37618 4.47589 4.24286 4.43371C4.12829 4.39754 3.99497 4.46585 3.99913 4.58237C4.00538 4.72098 4.02621 4.8596 4.06579 4.99821C4.35118 6.02679 5.44901 6.6375 6.51558 6.36228C7.58215 6.08705 8.21543 5.02835 7.93004 3.99978C7.69881 3.16607 6.93429 2.60558 6.08437 2.57143C5.96355 2.56741 5.89272 2.69397 5.93021 2.80647C5.97396 2.93504 5.99896 3.07165 5.99896 3.21429Z" fill="black"/>
</svg>
