<svg width="9" height="9" viewBox="0 0 9 9" fill="none" xmlns="http://www.w3.org/2000/svg">
<path d="M4.5 0C2.01375 0 0 2.06603 0 4.61425C0 6.65337 1.28925 8.38256 3.07687 8.99203C3.30187 9.03548 3.38437 8.89282 3.38437 8.77016C3.38437 8.66057 3.38063 8.37026 3.37875 7.98574C2.127 8.26413 1.863 7.36666 1.863 7.36666C1.65825 6.83409 1.36237 6.69182 1.36237 6.69182C0.95475 6.40574 1.39388 6.41151 1.39388 6.41151C1.84575 6.44381 2.08312 6.88677 2.08312 6.88677C2.48437 7.59237 3.1365 7.38857 3.39375 7.27053C3.43425 6.97214 3.55013 6.76873 3.67875 6.65337C2.67938 6.53801 1.629 6.14119 1.629 4.37316C1.629 3.86944 1.80338 3.458 2.09212 3.135C2.0415 3.01849 1.88963 2.54938 2.1315 1.91376C2.1315 1.91376 2.50838 1.78995 3.369 2.38672C3.729 2.28406 4.1115 2.2333 4.494 2.23099C4.8765 2.2333 5.259 2.28406 5.619 2.38672C6.474 1.78995 6.85087 1.91376 6.85087 1.91376C7.09275 2.54938 6.94087 3.01849 6.89587 3.135C7.18275 3.458 7.35712 3.86944 7.35712 4.37316C7.35712 6.1458 6.30525 6.53609 5.304 6.64952C5.4615 6.78795 5.60775 7.07096 5.60775 7.50316C5.60775 8.1207 5.60213 8.61674 5.60213 8.7667C5.60213 8.88782 5.68087 9.03202 5.9115 8.98588C7.71188 8.38064 9 6.65029 9 4.61425C9 2.06603 6.98512 0 4.5 0Z" fill="black"/>
</svg>
